<?xml version="1.0" encoding="UTF-8" standalone="no"?>
<!DOCTYPE svg PUBLIC "-//W3C//DTD SVG 1.1//EN" "http://www.w3.org/Graphics/SVG/1.1/DTD/svg11.dtd">
<svg width="100%" height="100%" viewBox="0 0 746 1076" version="1.1" xmlns="http://www.w3.org/2000/svg" xmlns:xlink="http://www.w3.org/1999/xlink" xml:space="preserve" xmlns:serif="http://www.serif.com/" style="fill-rule:evenodd;clip-rule:evenodd;stroke-linejoin:round;stroke-miterlimit:2;">
    <g transform="matrix(1,0,0,1,-254.041116,-30.33871)">
        <g transform="matrix(2.518686,0,0,2.518686,224.433714,14.180626)">
            <path d="M151.569,56.533L152.212,56.353C155.375,48.257 155.738,47.138 156.003,46.322C165.067,18.396 156.289,5.491 163.507,6.467C167.152,6.959 184.001,27.459 187.031,31.842C221.049,81.065 212.579,124.331 211.232,132.457C211.112,132.944 210.487,135.497 209.967,138.607C209.385,140.882 208.802,143.158 208.22,145.433C207.036,149.389 207.018,149.301 206.928,149.641C198.7,174.682 191.483,180.96 201.445,188.602C203.49,189.563 203.414,189.536 205.538,190.237C209.111,190.507 209.007,190.432 212.483,190.233C213.185,190.089 213.888,189.945 214.59,189.802L216.462,189.322C251.526,175.054 241.908,142.863 250.533,145.285C254.291,146.34 299.177,192.008 306.325,252.523C318.172,352.818 260.512,402.357 234.769,414.981C233.18,415.983 233.23,415.915 231.638,416.77C218.75,423.3 218.564,422.781 217.455,423.361C212.345,425.153 212.428,425.213 207.289,427.016C204.566,427.704 201.988,428.475 201.53,428.612C199.596,429.176 199.613,429.191 199.441,429.221C199.041,429.29 196.802,429.675 194.471,430.26L192.532,430.611C191.516,430.832 190.5,431.054 189.485,431.275L187.508,431.536C186.164,431.777 184.82,432.018 183.476,432.259L182.499,432.323C181.505,432.416 180.512,432.51 179.518,432.603C177.843,432.855 176.167,433.106 174.491,433.358C173.831,433.362 173.17,433.366 172.509,433.371C163.965,433.575 164.049,433.531 155.501,433.489L152.492,433.436C151.487,433.285 150.481,433.135 149.475,432.985L145.466,432.694C143.809,432.555 142.152,432.415 140.495,432.276L139.456,431.951L136.468,431.622L134.514,431.337C132.847,431.013 131.18,430.69 129.514,430.366L128.416,429.944L125.502,429.492C124.491,429.195 123.479,428.898 122.468,428.601L121.524,428.397C120.517,428.094 119.51,427.792 118.503,427.49C108.501,424.296 108.549,424.372 107.703,424.045C105.221,422.965 105.257,423.028 102.719,422.022C102.232,421.799 99.112,420.367 96.659,419.193C93.974,417.96 94.082,417.87 91.453,416.625C86.611,416.018 86.824,417.237 82.279,419.052C72.178,423.573 72.286,423.565 62.29,428.142C60.461,429.02 60.483,428.876 58.626,429.767C54.537,431.668 54.634,431.655 50.508,433.424C49.12,432.367 49.231,431.638 49.259,431.453C49.512,429.788 89.3,395.028 111.635,374.654C117.215,369.564 117.847,366.519 123.876,371.013C163.135,400.282 163.316,400.962 167.48,400.373C171.155,399.854 257.026,334.213 261.644,331.833C265.556,329.817 268.824,355.492 277.234,349.127C278.914,347.856 279.272,347.584 283.004,323.427C285.534,307.048 286.566,304.383 283.225,301.905C281.748,300.809 238.704,299.326 236.738,300.799C229.38,306.312 247.514,313.927 249.291,315.717C250.628,317.064 249.933,318.098 231.223,331.09C229.746,332.116 229.833,332.133 228.332,333.215C224.52,335.964 226.352,330.95 226.145,274.504C225.963,225.283 227.781,221.874 221.487,221.643C189.144,220.455 188.449,221.458 186.868,223.738C185.327,225.961 186.639,359.438 186.097,363.449C185.864,365.172 185.744,366.061 169.452,377.406C165.649,380.055 167.542,375.146 167.433,319.501C167.324,263.449 168.225,262.016 164.51,260.477C162.319,259.57 133.563,260.026 132.469,260.062C125.962,260.276 127.246,263.539 127.153,298.494C127.021,348.008 127.844,350.079 125.526,349.422C121.608,348.311 120.413,342.87 111.692,350.768C107.548,354.521 108.845,347.439 108.769,338.496C108.47,303.128 110.441,299.083 102.49,298.995C70.755,298.64 70.163,299.298 68.901,301.68C67.839,303.685 68.683,374.574 68.363,387.49C68.299,390.064 63.999,392.911 63.41,393.159C57.571,395.623 -27.556,305.068 33.99,188.755C50.935,156.729 85.499,127.665 87.801,125.985C90.312,123.899 99.403,116.253 100.411,115.405C103.421,112.927 103.383,112.897 103.647,112.687C104.541,111.892 105.319,111.199 114.872,102.813C115.549,102.363 115.464,102.36 118.486,99.484C121.591,96.455 147.7,70.987 151.569,56.533Z" style="fill:url(#_Linear1);"/>
        </g>
    </g>
    <defs>
        <linearGradient id="_Linear1" x1="0" y1="0" x2="1" y2="0" gradientUnits="userSpaceOnUse" gradientTransform="matrix(350.764302,0,0,505.868092,-16.882151,194.856896)"><stop offset="0" style="stop-color:rgb(255,0,14);stop-opacity:1"/><stop offset="0.28" style="stop-color:rgb(255,220,0);stop-opacity:1"/><stop offset="0.43" style="stop-color:rgb(79,207,120);stop-opacity:1"/><stop offset="0.62" style="stop-color:rgb(0,103,255);stop-opacity:1"/><stop offset="0.84" style="stop-color:rgb(255,0,242);stop-opacity:1"/><stop offset="1" style="stop-color:rgb(227,164,195);stop-opacity:1"/></linearGradient>
    </defs>
</svg>
